<svg width="188" height="188" viewBox="0 0 188 188" fill="none" xmlns="http://www.w3.org/2000/svg">
<path d="M188 178.6C188 181.093 187.01 183.484 185.247 185.247C183.484 187.01 181.093 188 178.6 188H9.4C6.90696 188 4.51604 187.01 2.7532 185.247C0.990354 183.484 0 181.093 0 178.6L0 9.4C0 6.90696 0.990354 4.51604 2.7532 2.7532C4.51604 0.990354 6.90696 0 9.4 0L178.6 0C181.093 0 183.484 0.990354 185.247 2.7532C187.01 4.51604 188 6.90696 188 9.4V178.6Z" fill="#EBEDED"/>
<path d="M178.6 182H9.4C6.90696 182 4.51604 180.946 2.7532 179.071C0.990354 177.196 0 174.652 0 172L0 178C0 180.652 0.990354 183.196 2.7532 185.071C4.51604 186.946 6.90696 188 9.4 188H178.6C181.093 188 183.484 186.946 185.247 185.071C187.01 183.196 188 180.652 188 178V172C188 174.652 187.01 177.196 185.247 179.071C183.484 180.946 181.093 182 178.6 182V182Z" fill="#D4D7DA"/>
<path d="M0 58V9.35484C0 6.87378 0.990354 4.49434 2.7532 2.73997C4.51604 0.985596 6.90696 0 9.4 0L178.6 0C181.093 0 183.484 0.985596 185.247 2.73997C187.01 4.49434 188 6.87378 188 9.35484V58H0Z" fill="#E64C3C"/>
<path d="M0 52H188V58H0V52Z" fill="#C03A2B"/>
</svg>
