<svg width="49" height="49" viewBox="0 0 49 49" fill="none" xmlns="http://www.w3.org/2000/svg">
<path d="M46.4076 20.5022C45.6158 20.5022 44.8506 20.9422 44.2492 21.7358L36.6982 31.7238C35.4482 33.3788 33.6726 34.3262 31.8272 34.3262H31.7986C29.9514 34.3262 28.1756 33.3788 26.9276 31.7238L19.3768 21.7358C18.7772 20.942 18.0122 20.5022 17.2164 20.5022C16.4266 20.5022 15.6574 20.9422 15.0602 21.7358L7.50715 31.7238C6.26515 33.3646 4.50795 34.3118 2.67915 34.3262C6.52695 42.4422 14.7736 48.0702 24.3518 48.0702C37.6046 48.0702 48.351 37.3254 48.351 24.0722C48.351 23.1312 48.2834 22.2106 48.179 21.3082C47.6514 20.7886 47.0396 20.5022 46.4076 20.5022ZM32.3696 15.3078C30.9824 15.3078 29.8612 14.1846 29.8612 12.7996C29.8612 11.4146 30.9824 10.2914 32.3694 10.2914C33.7544 10.2914 34.8774 11.4146 34.8774 12.7994C34.8774 14.1842 33.7546 15.3078 32.3696 15.3078ZM24.352 0.0701904C11.0974 0.0701904 0.350952 10.813 0.350952 24.0722C0.350952 26.1794 0.651752 28.213 1.16295 30.1648C1.61735 30.5148 2.12055 30.7172 2.63615 30.7172C3.43195 30.7172 4.19695 30.2794 4.79855 29.4896L12.3494 19.4976C13.5954 17.8406 15.3752 16.8934 17.2164 16.8934C19.0616 16.8934 20.8354 17.8406 22.0874 19.4976L29.352 29.105L29.665 29.4896C30.2644 30.2774 31.0274 30.711 31.813 30.7172C32.5966 30.7112 33.3616 30.2772 33.957 29.4896L34.276 29.105L41.5406 19.4976C42.7886 17.8406 44.5642 16.8934 46.4076 16.8934C46.7 16.8934 46.9946 16.926 47.281 16.971C44.2554 7.18159 35.1354 0.0701904 24.352 0.0701904Z" fill="white"/>
</svg>
