<svg width="146" height="133" viewBox="0 0 146 133" fill="none" xmlns="http://www.w3.org/2000/svg">
<path d="M0 116.259C0.261583 119.521 1.39917 122.802 4.36783 127.203C7.89617 132.428 13.9552 135.297 18.3778 130.693C21.3586 127.584 53.6246 70.5197 69.1736 48.8904C69.6002 48.2721 70.1681 47.767 70.829 47.4183C71.4899 47.0696 72.2242 46.8875 72.9696 46.8875C73.7149 46.8875 74.4493 47.0696 75.1102 47.4183C75.771 47.767 76.339 48.2721 76.7656 48.8904C92.3146 70.5197 124.581 127.584 127.561 130.693C131.984 135.297 138.043 132.428 141.571 127.203C145.039 122.063 146 118.462 146 114.609C146 111.987 95.7517 17.3699 90.6903 9.49126C85.8237 1.92041 84.3393 0.270827 76.1086 0H69.8306C61.5998 0.270827 60.1155 1.91425 55.2428 9.49126C50.2909 17.2037 2.0075 108.097 0 114.326V116.259Z" fill="#6A6A6A"/>
</svg>
