<svg width="40" height="40" viewBox="0 0 40 40" fill="none" xmlns="http://www.w3.org/2000/svg">
<path d="M19.285 19.1883H0C0.000653381 20.3319 0.226855 21.4642 0.665656 22.5203C1.10446 23.5763 1.74724 24.5355 2.55721 25.3428C3.36717 26.1502 4.32842 26.7898 5.38592 27.2252C6.44341 27.6606 7.57639 27.8831 8.72 27.88H12.27V31.3083C12.27 33.6129 13.1853 35.8232 14.8145 37.4531C16.4438 39.083 18.6537 39.9991 20.9583 40V20.8633C20.9583 20.4191 20.7819 19.9931 20.4677 19.6789C20.1536 19.3648 19.7276 19.1883 19.2833 19.1883H19.285ZM28.8233 9.595H9.56C9.56044 11.8999 10.4764 14.1102 12.1063 15.7399C13.7363 17.3695 15.9468 18.285 18.2517 18.285H21.8V21.715C21.8018 24.0195 22.7181 26.229 24.3478 27.8584C25.9774 29.4878 28.1872 30.4037 30.4917 30.405V11.2633C30.4917 10.8209 30.3159 10.3965 30.003 10.0836C29.6901 9.77077 29.2658 9.595 28.8233 9.595ZM38.355 0H19.0917C19.0917 2.30517 20.0074 4.51593 21.6374 6.14594C23.2674 7.77594 25.4782 8.69167 27.7833 8.69167H31.3317V12.12C31.3334 14.42 32.2467 16.6255 33.8715 18.2534C35.4963 19.8813 37.7 20.7988 40 20.805V1.675C40.0018 1.23539 39.83 0.812838 39.522 0.499188C39.2139 0.185539 38.7946 0.00614475 38.355 0V0Z" fill="#1653F1"/>
</svg>
