<svg width="39" height="39" viewBox="0 0 39 39" fill="none" xmlns="http://www.w3.org/2000/svg">
<path fill-rule="evenodd" clip-rule="evenodd" d="M19.2 0C20.5255 0 21.6 1.07453 21.6 2.4V4.8C21.6 6.12547 20.5255 7.2 19.2 7.2C17.8745 7.2 16.8 6.12547 16.8 4.8V2.4C16.8 1.07453 17.8745 0 19.2 0ZM28.8 19.2C28.8 24.5018 24.5018 28.8 19.2 28.8C13.8981 28.8 9.6 24.5018 9.6 19.2C9.6 13.8981 13.8981 9.6 19.2 9.6C24.5018 9.6 28.8 13.8981 28.8 19.2ZM27.6854 31.0793L29.3825 32.7763C30.3197 33.7135 31.8394 33.7135 32.7766 32.7763C33.7138 31.8391 33.7138 30.3194 32.7766 29.3822L31.0795 27.6852C30.1423 26.748 28.6226 26.748 27.6854 27.6852C26.7482 28.6224 26.7482 30.1421 27.6854 31.0793ZM32.7763 5.62342C33.7135 6.56069 33.7135 8.08027 32.7763 9.01754L31.0793 10.7146C30.1421 11.6519 28.6224 11.6519 27.6852 10.7146C26.748 9.77734 26.748 8.25773 27.6852 7.32048L29.3822 5.62342C30.3194 4.68617 31.8391 4.68617 32.7763 5.62342ZM36 21.6C37.3255 21.6 38.4 20.5255 38.4 19.2C38.4 17.8745 37.3255 16.8 36 16.8H33.6C32.2745 16.8 31.2 17.8745 31.2 19.2C31.2 20.5255 32.2745 21.6 33.6 21.6H36ZM19.2 31.2C20.5255 31.2 21.6 32.2745 21.6 33.6V36C21.6 37.3255 20.5255 38.4 19.2 38.4C17.8745 38.4 16.8 37.3255 16.8 36V33.6C16.8 32.2745 17.8745 31.2 19.2 31.2ZM7.32074 10.7146C8.25799 11.6519 9.7776 11.6519 10.7148 10.7146C11.6521 9.77738 11.6521 8.25778 10.7148 7.32053L9.01781 5.62346C8.08054 4.68622 6.56095 4.68622 5.62368 5.62346C4.68643 6.56071 4.68643 8.08032 5.62368 9.01757L7.32074 10.7146ZM10.7146 31.0793L9.01757 32.7763C8.08032 33.7135 6.56071 33.7135 5.62346 32.7763C4.68622 31.8391 4.68622 30.3194 5.62346 29.3822L7.32053 27.6852C8.25778 26.748 9.77738 26.748 10.7146 27.6852C11.6519 28.6224 11.6519 30.1421 10.7146 31.0793ZM4.8 21.6C6.12547 21.6 7.2 20.5255 7.2 19.2C7.2 17.8745 6.12547 16.8 4.8 16.8H2.4C1.07453 16.8 0 17.8745 0 19.2C0 20.5255 1.07453 21.6 2.4 21.6H4.8Z" fill="white"/>
</svg>
