<svg width="150" height="150" viewBox="0 0 150 150" fill="none" xmlns="http://www.w3.org/2000/svg">
<path d="M111.32 140.634C110.762 140.929 110.809 141.023 111.343 140.751C111.517 140.681 111.662 140.583 111.789 140.465C111.789 140.367 111.789 140.367 111.32 140.634ZM112.445 140.025C112.178 140.245 112.178 140.245 112.496 140.1C112.665 140.001 112.815 139.908 112.815 139.879C112.815 139.753 112.74 139.781 112.445 140.025ZM113.176 139.584C112.909 139.804 112.909 139.804 113.228 139.659C113.401 139.561 113.546 139.458 113.546 139.434C113.546 139.317 113.471 139.34 113.176 139.584ZM113.917 139.148C113.65 139.369 113.65 139.369 113.959 139.219C114.132 139.125 114.278 139.026 114.278 138.998C114.278 138.881 114.203 138.904 113.917 139.148ZM114.915 138.487C114.404 138.829 114.226 139.05 114.695 138.806C115.009 138.614 115.543 138.192 115.45 138.192C115.248 138.267 115.079 138.394 114.91 138.487H114.915ZM70.09 0.034454C69.7478 0.0578919 68.7213 0.151644 67.8213 0.226645C46.5032 2.15793 26.5585 13.6332 13.9168 31.3101C6.92791 40.9993 2.39055 52.2543 0.679666 64.0717C0.0749977 68.1968 0 69.4155 0 75.0078C0 80.5955 0.0749977 81.7955 0.679666 85.9206C4.76235 114.098 24.8055 137.751 51.9734 146.517C56.8623 148.078 61.9856 149.156 67.8213 149.817C70.09 150.061 79.9006 150.061 82.1693 149.817C92.2565 148.692 100.773 146.203 109.201 141.905C110.495 141.248 110.739 141.075 110.565 140.929C106.44 135.487 102.391 130.04 98.336 124.546L86.3504 108.36L71.3368 86.1174C66.3307 78.6735 61.3059 71.2484 56.2014 63.8795C56.1498 63.8795 56.0842 73.7656 56.0561 85.8221C56.0045 106.94 56.0045 107.798 55.7373 108.285C55.4701 108.871 55.0295 109.359 54.4436 109.63C53.9796 109.851 53.5624 109.898 51.3453 109.898H48.8094L48.1485 109.485C47.736 109.218 47.3938 108.848 47.1735 108.412L46.8548 107.751L46.8782 78.3548L46.9298 48.9589L47.3938 48.3729C47.6891 48.012 48.0547 47.7167 48.4672 47.4964C49.0813 47.201 49.325 47.1542 51.8609 47.1542C54.8373 47.1542 55.3295 47.2713 56.1123 48.1292C62.1871 57.1856 68.2432 66.2655 74.2008 75.3735C83.9458 90.1488 97.2485 110.31 103.787 120.201L115.679 138.197L116.265 137.808C121.979 133.997 127.177 129.459 131.663 124.284C141.113 113.465 147.244 100.157 149.32 85.9534C149.925 81.8283 150 80.6048 150 75.0172C150 69.4249 149.925 68.2296 149.32 64.1045C145.238 35.9274 125.195 12.2738 98.0266 3.50327C92.9455 1.89543 87.7191 0.798532 82.4271 0.236021C81.0068 0.0907051 71.3134 -0.0827359 70.0947 0.0438292L70.09 0.034454ZM100.778 45.3963C101.486 45.7338 102.02 46.3713 102.264 47.1026C102.391 47.4964 102.414 55.6481 102.391 74.0094L102.339 100.372L97.7032 93.2473L93.0393 86.1174V66.978C93.0393 54.5699 93.0908 47.6135 93.1565 47.2714C93.3768 46.4885 93.9111 45.8323 94.6236 45.4197C95.2048 45.1244 95.4298 45.101 97.7501 45.101C99.9203 45.101 100.286 45.1244 100.773 45.3963H100.778Z" fill="#6A6A6A"/>
</svg>
