<svg width="47" height="48" viewBox="0 0 47 48" fill="none" xmlns="http://www.w3.org/2000/svg">
<path d="M7.94 8.4155C9.432 9.6275 9.992 9.5355 12.796 9.3475L39.226 7.7615C39.786 7.7615 39.32 7.2015 39.134 7.1095L34.742 3.9355C33.902 3.2835 32.78 2.5355 30.632 2.7215L5.042 4.5895C4.11 4.6815 3.922 5.1495 4.294 5.5215L7.94 8.4155ZM9.526 14.5755V42.3835C9.526 43.8775 10.272 44.4375 11.954 44.3435L41 42.6635C42.682 42.5715 42.87 41.5435 42.87 40.3295V12.7075C42.87 11.4955 42.404 10.8415 41.374 10.9335L11.02 12.7075C9.9 12.8015 9.526 13.3615 9.526 14.5735V14.5755ZM38.2 16.0655C38.386 16.9055 38.2 17.7455 37.36 17.8415L35.96 18.1215V38.6495C34.744 39.3035 33.624 39.6775 32.69 39.6775C31.194 39.6775 30.82 39.2095 29.7 37.8115L20.546 23.4395V37.3435L23.442 37.9995C23.442 37.9995 23.442 39.6795 21.106 39.6795L14.662 40.0515C14.476 39.6795 14.662 38.7455 15.316 38.5595L16.996 38.0935V19.7075L14.666 19.5195C14.478 18.6795 14.946 17.4675 16.252 17.3735L23.164 16.9075L32.692 31.4655V18.5855L30.262 18.3075C30.076 17.2795 30.822 16.5335 31.756 16.4415L38.2 16.0655ZM2.894 2.0695L29.514 0.109504C32.782 -0.170496 33.624 0.0155039 35.678 1.5095L44.176 7.4815C45.576 8.5075 46.044 8.7875 46.044 9.9075V42.6635C46.044 44.7155 45.298 45.9315 42.684 46.1155L11.768 47.9835C9.808 48.0775 8.872 47.7975 7.844 46.4895L1.586 38.3695C0.466 36.8755 0 35.7575 0 34.4495V5.3335C0 3.6555 0.748 2.2535 2.894 2.0695Z" fill="white"/>
</svg>
