<svg width="174" height="155" viewBox="0 0 174 155" fill="none" xmlns="http://www.w3.org/2000/svg">
<path d="M142.238 49.9959C140.395 49.3664 138.539 48.7801 136.669 48.2371C136.979 46.9757 137.265 45.7071 137.527 44.4312C141.744 23.9241 138.987 7.40315 129.577 1.96463C120.566 -3.25405 105.79 2.18447 90.8835 15.1879C89.4178 16.471 87.9822 17.7924 86.5766 19.1524C85.6396 18.249 84.6785 17.3648 83.6934 16.4998C68.0698 2.59533 52.4102 -3.26126 43.0108 2.19528C34.0007 7.42477 31.3229 22.9546 35.1179 42.3913C35.4976 44.3135 35.924 46.2272 36.3974 48.1326C34.1809 48.7633 32.0401 49.4372 29.993 50.1509C11.6988 56.5481 0 66.5781 0 76.9794C0 87.7267 12.5565 98.5029 31.6328 105.037C33.1801 105.563 34.7419 106.052 36.3181 106.504C35.8063 108.544 35.3534 110.606 34.9593 112.692C31.3553 131.794 34.1665 146.956 43.1586 152.153C52.4462 157.519 68.0266 152.005 83.2141 138.706C84.4154 137.654 85.6168 136.542 86.8181 135.372C88.3366 136.84 89.8984 138.265 91.5034 139.647C106.208 152.326 120.729 157.447 129.706 152.236C138.987 146.851 142.003 130.561 138.086 110.742C137.785 109.229 137.439 107.684 137.048 106.107C138.143 105.783 139.216 105.448 140.266 105.102C160.089 98.5173 173.002 87.8709 173.002 76.9903C172.995 66.5385 160.921 56.4435 142.238 49.9959ZM95.7454 20.7742C108.515 9.63406 120.451 5.23711 125.893 8.37985C131.685 11.728 133.938 25.2288 130.297 42.9355C130.057 44.0888 129.798 45.2385 129.519 46.3846C121.899 44.6513 114.171 43.428 106.388 42.7229C101.932 36.3036 97.0468 30.1928 91.7665 24.4323C93.0591 23.1781 94.383 21.9587 95.7381 20.7742H95.7454ZM51.0803 85.8671C52.6444 88.8945 54.2795 91.8846 55.9854 94.8376C57.7226 97.8505 59.533 100.819 61.4167 103.743C56.0613 103.161 50.7395 102.303 45.4724 101.173C47.0005 96.2287 48.8818 91.0929 51.0803 85.8671ZM51.0803 68.4486C48.9179 63.3345 47.087 58.3032 45.5841 53.445C50.5217 52.3385 55.7836 51.4339 61.269 50.7491C59.4309 53.618 57.6625 56.5288 55.9638 59.4818C54.2651 62.4347 52.6336 65.4236 51.0695 68.4486H51.0803ZM55.0087 77.1597C57.2865 72.4095 59.7396 67.7507 62.3682 63.1831C64.9943 58.618 67.7899 54.1574 70.7548 49.8013C75.9014 49.412 81.1778 49.2066 86.5082 49.2066C91.8386 49.2066 97.1473 49.412 102.29 49.8049C105.224 54.1514 108.003 58.5964 110.627 63.1399C113.25 67.6834 115.736 72.3206 118.083 77.0515C115.767 81.8185 113.287 86.4966 110.645 91.0857C108.023 95.6509 105.26 100.125 102.355 104.507C97.2194 104.868 91.9034 105.066 86.4973 105.066C81.0913 105.066 75.8762 104.896 70.8341 104.569C67.8475 100.198 65.0292 95.7181 62.379 91.129C59.7288 86.5398 57.2685 81.8834 54.9979 77.1597H55.0087ZM117.042 94.7871C118.784 91.7645 120.456 88.7022 122.059 85.6004C124.255 90.5815 126.195 95.6723 127.868 100.853C122.539 102.053 117.151 102.973 111.726 103.61C113.557 100.705 115.329 97.764 117.042 94.7871ZM121.986 68.4522C120.391 65.4128 118.732 62.4095 117.009 59.4421C115.327 56.5156 113.575 53.6252 111.751 50.7708C117.269 51.4699 122.563 52.3998 127.526 53.5351C125.93 58.597 124.081 63.5757 121.986 68.4522ZM86.5802 29.7267C90.1791 33.6591 93.5772 37.7705 96.7617 42.0453C89.95 41.721 83.1336 41.721 76.3123 42.0453C79.6749 37.5979 83.1167 33.4713 86.5802 29.7267ZM46.7302 8.59969C52.5183 5.24071 65.3163 10.0413 78.8063 22.032C79.6677 22.7997 80.5362 23.6034 81.4012 24.4359C76.0937 30.1956 71.1742 36.3011 66.675 42.7121C58.9092 43.4118 51.1971 44.6157 43.5875 46.3161C43.1478 44.5477 42.7513 42.7673 42.3981 40.9749C39.1364 24.3134 41.2953 11.7532 46.7302 8.59969ZM38.2931 99.3679C36.8515 98.957 35.4279 98.5113 34.0223 98.0307C25.5888 95.1475 18.6222 91.3849 13.8396 87.287C9.55796 83.6145 7.38831 79.9492 7.38831 76.9794C7.38831 70.6687 16.7805 62.6173 32.4437 57.1571C34.4115 56.4724 36.3962 55.8465 38.3976 55.2794C40.7239 62.7553 43.5411 70.0694 46.8311 77.1741C43.5019 84.3769 40.6498 91.7909 38.2931 99.3679ZM78.345 133.127C71.6306 139.009 64.9054 143.179 58.9768 145.28C53.65 147.165 49.408 147.219 46.8455 145.738C41.389 142.584 39.1184 130.406 42.2143 114.072C42.5819 112.15 43.0024 110.228 43.4757 108.306C51.1615 109.962 58.9511 111.092 66.7904 111.69C71.3335 118.135 76.2936 124.275 81.6391 130.071C80.5651 131.127 79.4658 132.143 78.345 133.127ZM86.7857 124.758C83.2825 120.971 79.7866 116.779 76.3772 112.274C79.6905 112.404 83.0639 112.469 86.4973 112.469C90.0221 112.469 93.5108 112.393 96.9491 112.238C93.7762 116.581 90.3839 120.76 86.7857 124.758ZM131.663 135.062C130.633 140.627 128.56 144.339 125.998 145.824C120.545 148.988 108.886 144.876 96.3148 134.032C94.8732 132.792 93.4315 131.462 91.9647 130.067C97.206 124.248 102.05 118.084 106.464 111.614C114.347 110.947 122.174 109.736 129.89 107.992C130.243 109.42 130.556 110.818 130.827 112.187C132.561 120.945 132.809 128.867 131.663 135.062ZM137.934 98.0704C136.99 98.3839 136.017 98.6867 135.03 98.9822C132.61 91.4712 129.683 84.1332 126.268 77.0191C129.555 69.9999 132.367 62.7684 134.687 55.3731C136.457 55.8885 138.176 56.4291 139.83 57.0022C155.839 62.5236 165.606 70.6976 165.606 76.9794C165.606 83.683 155.057 92.3832 137.934 98.0704Z" fill="#00C2FF"/>
<path d="M86.4974 92.4628C89.5646 92.4728 92.5658 91.5724 95.121 89.8756C97.6762 88.1788 99.6704 85.7619 100.851 82.931C102.032 80.1002 102.346 76.9826 101.754 73.973C101.161 70.9635 99.6894 68.1974 97.524 66.025C95.3587 63.8526 92.5974 62.3716 89.5898 61.7695C86.5823 61.1674 83.4637 61.4714 80.6289 62.6429C77.7942 63.8143 75.3708 65.8006 73.6657 68.3502C71.9606 70.8999 71.0504 73.8981 71.0504 76.9654C71.0461 78.9975 71.4424 81.0105 72.2165 82.8894C72.9907 84.7683 74.1276 86.4761 75.5621 87.9154C76.9967 89.3547 78.7009 90.4971 80.5772 91.2773C82.4535 92.0576 84.4653 92.4605 86.4974 92.4628Z" fill="#00C2FF"/>
</svg>
