<svg width="66" height="45" viewBox="0 0 66 45" fill="none" xmlns="http://www.w3.org/2000/svg">
<path d="M65.9728 31.7124C65.7833 30.1885 65.0047 28.8665 63.6525 27.7785C63.6356 27.7582 63.6171 27.7394 63.597 27.7223L63.5287 27.6737L63.5068 27.6584L62.7888 27.147L62.7643 27.1291L62.6728 27.0652C62.6392 27.0457 62.6032 27.0307 62.5658 27.0204C60.2945 25.6793 56.5343 24.7396 50.7812 26.7532C49.4083 24.4622 49.2524 22.6263 50.1715 19.8137C50.3352 19.324 50.1831 19.0006 49.6932 18.7909C48.7084 18.3754 47.36 18.5876 46.4035 18.8382C45.9575 18.9533 45.6894 19.2038 45.6043 19.5835C44.9984 22.3962 43.2376 24.9659 41.5347 27.4461L41.4342 27.5919C40.3849 25.3852 40.6027 23.6759 41.3336 21.5345C41.4793 21.1075 41.3646 20.8237 40.9611 20.6114C39.8345 20.0348 38.1445 20.4312 37.4716 20.6281C36.6183 20.8748 35.703 23.162 34.6808 25.9005C34.423 26.5896 34.2013 27.1789 34.0685 27.4538C33.7527 28.093 33.451 28.8218 33.1313 29.5953C32.4095 31.3455 31.5961 33.3156 30.4333 34.5532C30.0105 33.6263 30.6757 32.165 31.3215 30.7472C32.0859 29.0711 32.8078 27.487 31.9763 26.4758C31.8449 26.3159 31.6818 26.1844 31.4971 26.0894C31.3124 25.9944 31.1101 25.938 30.9026 25.9235C30.6318 25.903 30.3601 25.9469 30.1098 26.0513C30.1961 25.329 30.2 24.7588 29.9873 24.0697C29.6831 23.0866 28.8929 22.5355 27.8049 22.5649C25.3274 22.6365 23.2313 24.4673 21.9075 25.9912C21.0258 27.014 19.0715 27.7939 17.3558 28.4779C16.6778 28.763 16.0332 29.0187 15.4957 29.2744C14.6385 28.5559 13.5492 27.831 12.4019 27.0652C9.17928 24.9199 5.52737 22.487 5.40104 19.1885C5.22058 14.3162 10.8151 10.8605 15.6981 8.39436C19.399 6.52779 22.6165 5.29023 25.5349 4.61392C29.6341 3.66402 33.0965 3.85579 35.8242 5.18156C37.3169 5.90646 38.0156 7.48281 37.5722 9.10391C36.412 13.3165 31.6051 16.2033 27.4943 17.5022C25.018 18.2846 22.9104 18.6119 21.049 18.5045C18.7158 18.3703 16.8105 17.2094 15.9958 16.7147C15.8653 16.6262 15.7273 16.5492 15.5833 16.4845L15.546 16.4756C15.4722 16.4574 15.3948 16.4597 15.3223 16.4822C15.2497 16.5048 15.1848 16.5467 15.1348 16.6034C14.9672 16.8016 15.0265 17.1148 15.0871 17.2733C15.8798 19.3278 17.5169 20.6255 19.952 21.1305C20.7489 21.2888 21.5601 21.3654 22.3728 21.3593C28.0718 21.3593 35.3434 18.1005 38.0143 15.417C39.8358 13.5888 41.1622 11.7094 41.7113 8.46851C42.285 5.07417 39.9647 2.71539 37.6005 1.62869C31.8552 -1.00113 25.3299 0.0382715 20.8672 1.373C15.6465 2.93401 10.2453 5.77222 6.05073 9.16272C0.879015 13.3395 -0.990125 17.2171 0.492296 20.7009C2.01468 24.2717 5.72718 26.5052 9.31721 28.6658C10.4774 29.3626 11.5808 30.0261 12.5747 30.7114C12.2756 30.8558 11.9701 31.0028 11.6594 31.1499C8.64561 32.5984 5.22702 34.2284 3.33081 36.9222C1.95409 38.8846 1.69628 40.8381 2.56511 42.729C3.02917 43.7351 3.85417 44.4178 5.00015 44.7579C5.59627 44.9254 6.21364 45.0068 6.83319 44.9996C9.06456 44.9996 11.5202 44.1046 12.857 43.2774C15.2185 41.8072 16.7487 39.8332 17.4061 37.4105C17.9913 35.255 17.8508 33.1136 17 31.2023L19.894 29.7551C18.4979 34.3576 19.5678 37.1063 20.7435 38.6225C21.1766 39.1812 21.9578 39.5175 22.8304 39.5328C23.7031 39.5481 24.5062 39.2221 24.96 38.6673C25.8185 37.6125 26.4527 36.3788 27.0367 35.1451C27.0057 35.9505 27.0444 36.7662 27.3215 37.4578C27.5703 38.0805 27.9803 38.4934 28.5088 38.6519C29.0708 38.822 29.7295 38.6788 30.3637 38.2492C33.2216 36.3098 35.1758 31.6549 36.7459 27.9128C36.9689 27.3809 37.1829 26.8696 37.3904 26.3914C37.7788 27.7701 38.3192 29.1022 39.0017 30.3636C39.1538 30.6372 39.141 30.7574 38.9347 30.9824C38.624 31.3199 38.1909 31.7277 37.732 32.1599C36.3424 33.4677 34.6125 35.1003 34.3804 36.5361C34.2902 37.1114 34.6898 37.6356 35.3099 37.7545C37.1751 38.1227 39.422 37.5844 41.322 36.3162C43.0494 35.1655 43.6991 33.5611 43.2556 31.5615C42.8264 29.6362 43.8061 27.2454 46.1676 24.4507C46.5543 26.0526 47.07 27.3477 47.7815 28.4817L47.7622 28.497C46.0426 29.9865 43.6862 32.0256 44.0523 34.4995C44.083 34.7347 44.1628 34.9611 44.2867 35.164C44.4105 35.367 44.5757 35.5421 44.7716 35.6782C44.9809 35.8184 45.2173 35.9142 45.4657 35.9595C45.7142 36.0048 45.9694 35.9987 46.2153 35.9416C48.4673 35.4724 50.1624 34.5276 51.3948 33.0561C52.6271 31.5845 52.1772 29.9532 51.7622 28.6875C54.9848 27.8207 57.8543 27.8425 60.5407 28.7515C62.0489 29.2628 63.1304 30.1028 63.7543 31.2624C64.5393 32.7211 64.1152 34.0673 62.5568 35.053C62.0785 35.356 61.8478 35.5414 61.8336 35.7754C61.8304 35.8297 61.8405 35.8839 61.8629 35.9335C61.8854 35.9832 61.9195 36.0267 61.9625 36.0605C62.143 36.2075 62.6998 36.4632 63.9593 35.6769C65.1194 34.9546 65.8 33.9715 65.9741 32.7365C66.0091 32.396 66.0086 32.0528 65.9728 31.7124ZM14.4451 34.9162L14.4322 35.0799C14.2311 36.9516 13.2721 38.5829 11.5769 39.9381C10.5122 40.7895 9.35589 41.3124 8.32206 41.4122C7.60018 41.4812 7.07554 41.384 6.76358 41.1219C6.53026 40.9263 6.40522 40.6336 6.37686 40.227C6.16546 36.9695 11.3165 33.7324 14.2156 32.6674C14.4225 33.3983 14.5002 34.1591 14.4451 34.9162ZM27.6386 25.7292C27.1617 28.4254 25.7708 33.515 23.5845 35.4903C23.4801 35.5849 23.3925 35.6181 23.3525 35.6092C23.3126 35.6002 23.2816 35.5529 23.2494 35.4813C22.5198 33.804 22.7892 30.9709 23.8939 28.7451C24.7434 27.0294 25.9564 25.8928 27.3125 25.5489C27.3688 25.5335 27.4269 25.5253 27.4853 25.5246C27.5309 25.5214 27.5763 25.5336 27.6142 25.5591C27.6301 25.5841 27.6405 25.6122 27.6448 25.6415C27.649 25.6708 27.6469 25.7007 27.6386 25.7292ZM38.401 35.558C37.9898 35.9838 37.4265 35.9262 37.5593 35.7703L39.6527 33.5662C39.4838 34.3243 38.985 34.952 38.401 35.558ZM47.0854 33.6518C46.8864 33.7491 46.6709 33.8094 46.4499 33.8295C46.3906 32.67 47.5237 31.3647 48.6413 30.494C48.9417 31.7035 48.3268 32.9819 47.0854 33.6518Z" fill="white"/>
</svg>
