<svg width="48" height="48" viewBox="0 0 48 48" fill="none" xmlns="http://www.w3.org/2000/svg">
<path fill-rule="evenodd" clip-rule="evenodd" d="M10.0953 30.2476C10.0953 33.0286 7.8477 35.2762 5.06675 35.2762C2.2858 35.2762 0.0381775 33.0286 0.0381775 30.2476C0.0381775 27.4667 2.2858 25.2191 5.06675 25.2191H10.0953V30.2476ZM12.6095 30.2476C12.6095 27.4667 14.8571 25.2191 17.638 25.2191C20.419 25.2191 22.6666 27.4667 22.6666 30.2476V42.8191C22.6666 45.6 20.419 47.8476 17.638 47.8476C14.8571 47.8476 12.6095 45.6 12.6095 42.8191V30.2476Z" fill="#E01E5A"/>
<path fill-rule="evenodd" clip-rule="evenodd" d="M17.6381 10.0571C14.8571 10.0571 12.6095 7.80952 12.6095 5.02857C12.6095 2.24762 14.8571 0 17.6381 0C20.419 0 22.6667 2.24762 22.6667 5.02857V10.0571H17.6381ZM17.6381 12.6096C20.419 12.6096 22.6667 14.8572 22.6667 17.6382C22.6667 20.4191 20.419 22.6667 17.6381 22.6667H5.02857C2.24762 22.6667 0 20.4191 0 17.6382C0 14.8572 2.24762 12.6096 5.02857 12.6096H17.6381Z" fill="#36C5F0"/>
<path fill-rule="evenodd" clip-rule="evenodd" d="M37.7904 17.638C37.7904 14.8571 40.038 12.6095 42.819 12.6095C45.6 12.6095 47.8476 14.8571 47.8476 17.638C47.8476 20.419 45.6 22.6666 42.819 22.6666H37.7904V17.638ZM35.2761 17.638C35.2761 20.419 33.0285 22.6666 30.2475 22.6666C27.4666 22.6666 25.219 20.419 25.219 17.638V5.02851C25.219 2.24756 27.4666 -6.10352e-05 30.2475 -6.10352e-05C33.0285 -6.10352e-05 35.2761 2.24756 35.2761 5.02851V17.638Z" fill="#2EB67D"/>
<path fill-rule="evenodd" clip-rule="evenodd" d="M30.2477 37.7904C33.0286 37.7904 35.2762 40.038 35.2762 42.819C35.2762 45.5999 33.0286 47.8475 30.2477 47.8475C27.4667 47.8475 25.2191 45.5999 25.2191 42.819V37.7904H30.2477ZM30.2477 35.2763C27.4667 35.2763 25.2191 33.0286 25.2191 30.2477C25.2191 27.4667 27.4667 25.2191 30.2477 25.2191H42.8572C45.6381 25.2191 47.8858 27.4667 47.8858 30.2477C47.8858 33.0286 45.6381 35.2763 42.8572 35.2763H30.2477Z" fill="#ECB22E"/>
</svg>
