<svg width="179" height="162" viewBox="0 0 179 162" fill="none" xmlns="http://www.w3.org/2000/svg">
<path d="M176.711 71.269L141.433 9.73101C138.38 4.38805 130.868 0 124.725 0H54.2415C48.1332 0 40.5869 4.38805 37.5334 9.73101L2.29064 71.269C-0.763545 76.6119 -0.763545 85.352 2.29064 90.6957L37.5327 152.268C40.5861 157.612 48.0981 162 54.2408 162H124.759C130.868 162 138.378 157.612 141.467 152.269L176.709 90.6964C179.764 85.3527 179.764 76.6119 176.709 71.269H176.711ZM81.8657 34.042C81.8657 30.0081 85.1302 26.717 89.1316 26.717C93.1329 26.717 96.3975 30.0081 96.3975 34.042V77.815C96.3975 81.8496 93.1329 85.1399 89.1316 85.1399C85.1302 85.1399 81.8657 81.8496 81.8657 77.815V34.042ZM89.1316 127.498C61.9631 127.498 39.8492 105.204 39.8492 77.815C39.8843 62.1034 47.2553 47.3475 59.7518 37.9345C60.4332 37.4213 61.2084 37.0489 62.033 36.8386C62.8577 36.6284 63.7153 36.5844 64.5568 36.7094C65.3983 36.8343 66.2071 37.1256 66.9366 37.5666C67.666 38.0075 68.3019 38.5895 68.8076 39.2789C69.3168 39.9659 69.6864 40.7475 69.895 41.5789C70.1036 42.4103 70.1472 43.275 70.0233 44.1235C69.8994 44.9719 69.6104 45.7873 69.1729 46.5228C68.7354 47.2582 68.1581 47.8993 67.4741 48.4092C51.3626 60.4756 47.993 83.4414 59.9621 99.6838C71.9319 115.927 94.7126 119.323 110.824 107.257C120.056 100.357 125.497 89.422 125.497 77.815C125.482 72.072 124.134 66.4123 121.562 61.288C118.99 56.1637 115.265 51.717 110.684 48.3032C107.805 46.1798 107.208 42.0745 109.315 39.1729C111.421 36.2706 115.492 35.6691 118.371 37.7932C130.972 47.17 138.379 62.0327 138.414 77.815C138.414 105.24 116.3 127.498 89.1316 127.498Z" fill="#02B92A"/>
</svg>
