<svg width="80" height="35" viewBox="0 0 80 35" fill="none" xmlns="http://www.w3.org/2000/svg">
<path d="M54.0467 0L53.7967 1.30632C53.41 3.78198 53.55 4.49026 54.61 5.40903L55.6333 6.25764L54.5733 10.9951C53.94 13.8216 53.1633 16.1903 52.67 16.9688C52.2467 17.6403 51.7533 18.6292 51.6467 19.1605C51.47 19.7952 50.87 20.4334 49.9533 20.998C49.1433 21.459 47.5533 22.6952 46.4267 23.6875C45.5267 24.4993 44.9067 24.9971 44.57 25.211L43.47 26.0829C43.1167 26.6509 42.9167 27.1086 42.84 27.4561C42.7633 27.8136 42.8067 28.0508 42.92 28.2245C43.03 28.3916 43.22 28.5085 43.48 28.582C43.7878 28.6543 44.1046 28.6802 44.42 28.6588C45.1336 28.61 45.8398 28.4845 46.5267 28.2846C46.76 28.2212 46.9433 28.161 47.1033 28.1076C47.35 27.8035 47.92 27.2289 48.93 26.23C51.61 23.5806 52.6333 22.1306 51.5767 22.5215C51.1867 22.6618 51.3633 22.3077 52.0333 21.5994C53.4467 20.2195 54.2567 18.1348 55.95 11.5965C57.29 6.43471 57.29 6.36121 58.2767 6.36121C58.74 6.36121 60.05 6.44139 60.05 6.44139V0H57.0433H54.0467ZM66.8433 10.5742C66.63 10.5742 66.2767 10.8949 66.0667 11.249C65.68 11.8838 66.1367 12.2714 71.9567 15.913C75.4133 18.1081 78.2 19.979 78.13 20.1227C78.06 20.2262 75.2367 22.0671 71.8533 24.1886C65.7133 28.004 65.68 28.0408 66.2433 28.8192C66.95 29.738 66.2433 30.0554 74.2133 25.0706L80 21.3588V18.5658L73.5433 14.57C70.0533 12.3783 67.02 10.6109 66.8433 10.5742ZM13.2267 10.9651C13.05 10.9651 10.0167 12.7692 6.52667 14.9241L0 18.9199V21.713L6.49 25.7789C10.09 28.004 13.1233 29.8449 13.2633 29.8449C13.4033 29.8449 13.6867 29.5241 13.97 29.1366C14.3933 28.4651 14.0367 28.1811 8.07667 24.3991C2.4 20.8276 1.8 20.3331 2.36667 19.9456C2.72 19.6984 5.4 18.0346 8.29333 16.2338C14.89 12.1678 14.5367 12.4485 14.0067 11.5998C13.7967 11.249 13.44 10.9317 13.23 10.9651H13.2267ZM42.1733 11.0419C41.2 11.0352 39.1067 12.522 32.84 17.6503C32.57 18.2951 32.5467 18.7395 32.67 19.0268C32.75 19.2239 32.8967 19.3609 33.1 19.4611C33.3 19.5614 33.56 19.6215 33.8467 19.6449C34.4167 19.695 35.09 19.6048 35.6333 19.4979L36 19.4144C36.1255 19.2457 36.2903 19.1103 36.48 19.0201C36.8667 18.8063 38.49 17.3229 40.1133 15.7326C42.97 12.8327 43.64 11.523 42.4767 11.0987C42.3812 11.0606 42.276 11.0414 42.1733 11.0419ZM49.4933 13.0565C48.6367 13.0799 47.0933 14.0755 44.45 16.1903C43.1233 17.2695 42.2833 17.8508 41.8333 17.9711L40.0867 19.3542C39.43 20.557 39.3333 21.302 39.5067 21.713C39.55 21.8143 39.613 21.9061 39.692 21.9829C39.7709 22.0598 39.8643 22.1202 39.9667 22.1607C40.2213 22.2614 40.4929 22.3125 40.7667 22.311C41.4209 22.304 42.0713 22.2085 42.7 22.027C43.0277 21.9389 43.3513 21.8363 43.67 21.7196L43.7667 21.6796L43.9433 21.586C44.2767 21.155 45.0433 20.3432 46.0033 19.4077C49.0367 16.4743 50.5867 14.3896 50.27 13.6111C50.1267 13.2336 49.88 13.0431 49.4933 13.0565ZM41.4133 16.6648C41.1667 16.6915 40.6133 17.1191 39.6167 17.9945C38.1767 19.2707 36.6067 20.0057 36.0633 19.6783C35.9371 19.7069 35.8104 19.7336 35.6833 19.7585C35.13 19.8687 34.44 19.959 33.8233 19.9088C33.5328 19.8912 33.248 19.8198 32.9833 19.6984C32.7337 19.584 32.5345 19.3819 32.4233 19.1304C32.3 18.8297 32.3 18.4555 32.44 17.9778L30.2733 19.7618L25.37 23.8278V30.4195L41.4367 17.7339C41.4335 17.595 41.4515 17.4564 41.49 17.3229C41.6133 16.8752 41.6067 16.6481 41.4133 16.6681V16.6648ZM48.3267 18.7996C48.0833 18.7996 47.6767 19.1438 47.0267 19.8353C46.1433 20.7808 44.7533 21.6963 44.0167 21.8834L43.9033 21.9435C43.7824 21.9935 43.6601 22.0403 43.5367 22.0838C43.3367 22.1506 43.0767 22.2308 42.7767 22.311C42.1767 22.4747 41.43 22.625 40.7633 22.6083C40.449 22.6079 40.1378 22.5467 39.8467 22.4279C39.5723 22.3146 39.3524 22.099 39.2333 21.8266C39.04 21.3622 39.1167 20.7107 39.54 19.7852L25.3667 30.9741V35H31.5933L44.8 24.6029C45.1433 24.222 45.66 23.7008 46.3567 23.0493C48.2233 21.3154 48.6467 20.7174 48.6467 19.832C48.6467 19.1438 48.57 18.7963 48.3267 18.7963V18.7996ZM51.47 25.3145L50.34 26.4438C49.7067 27.0451 48.5767 27.7868 47.8033 28.1042L47.65 28.1711L47.64 28.1878L47.6067 28.2212C47.5767 28.2446 47.5633 28.2479 47.54 28.2579C47.2313 28.375 46.9177 28.4787 46.6 28.5686C45.8937 28.7747 45.1673 28.9035 44.4333 28.9528C44.0863 28.9751 43.7379 28.9447 43.4 28.8626C43.1067 28.7979 42.8478 28.6265 42.6733 28.3815C42.5133 28.1343 42.4667 27.8035 42.5567 27.3959C42.6283 27.1058 42.7346 26.8253 42.8733 26.5607L32.2167 35H46.39L48.0833 33.0556C50.41 30.336 51.47 28.3916 51.47 26.7278V25.3145Z" fill="white"/>
</svg>
