<svg width="49" height="49" viewBox="0 0 49 49" fill="none" xmlns="http://www.w3.org/2000/svg">
<path d="M48.2572 11.7147L24.2383 0.0701904L0.350952 11.7752L0.390195 36.3241L24.2405 48.0702L48.2965 36.2684L48.2572 11.7147ZM36.333 28.823L36.3175 19.093L25.4689 24.5508L25.5207 35.4694L34.9851 30.8434L44.2666 35.5632L25.5647 44.7383L25.5207 35.4694L24.2394 36.0957L22.8556 35.4116L22.8998 44.7252L4.40737 35.6178L13.6762 30.8738L22.8556 35.4116L22.8036 24.4516L12.3144 19.2674L12.3297 28.8527L3.05062 33.602L3.02035 14.6739L12.3144 19.2674L13.6611 17.246L4.20068 12.5703L22.9094 3.40287V12.6973L13.6611 17.246L24.2359 22.4725L34.8126 17.1514L25.5741 12.6891V3.39258L44.2064 12.4255L34.8126 17.1514L36.3175 19.093L45.5969 14.4247L45.6273 33.5494L36.333 28.823Z" fill="white"/>
</svg>
