<svg width="64" height="64" viewBox="0 0 64 64" fill="none" xmlns="http://www.w3.org/2000/svg">
<path d="M58.6667 33.4399C53.856 32.5199 51.464 30.5599 49.272 25.5999C47.9733 27.4559 46.3333 29.7812 46.8187 31.9999C46.8933 32.6345 45.9653 34.6719 45.3333 34.6665H8C8 48.5545 16.4373 53.3332 24.5227 53.3332C35.52 53.3919 45.3973 49.6639 50.8 39.9999C53.856 39.7305 56.9227 35.9865 58.6667 33.4399Z" stroke="white" stroke-width="2" stroke-linecap="round" stroke-linejoin="round"/>
<path d="M13.3333 26.6667H21.3333V34.6667H13.3333V26.6667Z" stroke="white" stroke-width="2" stroke-linecap="round" stroke-linejoin="round"/>
<path d="M21.3333 26.6667H29.3333V34.6667H21.3333V26.6667Z" stroke="white" stroke-width="2" stroke-linecap="round" stroke-linejoin="round"/>
<path d="M29.3333 26.6667H37.3333V34.6667H29.3333V26.6667Z" stroke="white" stroke-width="2" stroke-linecap="round" stroke-linejoin="round"/>
<path d="M21.3333 18.6667H29.3333V26.6667H21.3333V18.6667Z" stroke="white" stroke-width="2" stroke-linecap="round" stroke-linejoin="round"/>
<path d="M29.3333 18.6667H37.3333V26.6667H29.3333V18.6667Z" stroke="white" stroke-width="2" stroke-linecap="round" stroke-linejoin="round"/>
<path d="M29.3333 10.6667H37.3333V18.6667H29.3333V10.6667Z" stroke="white" stroke-width="2" stroke-linecap="round" stroke-linejoin="round"/>
<path d="M12.1894 47.9999C16.1894 47.9999 17.648 47.8026 20.0774 45.9199" stroke="white" stroke-width="2" stroke-linecap="round" stroke-linejoin="round"/>
<path d="M26.6667 42.6667V42.6934" stroke="white" stroke-width="2" stroke-linecap="round" stroke-linejoin="round"/>
</svg>
