<svg width="54" height="54" viewBox="0 0 54 54" fill="none" xmlns="http://www.w3.org/2000/svg">
<path d="M33.75 33.75C37.4779 33.75 40.5 30.7279 40.5 27C40.5 23.2721 37.4779 20.25 33.75 20.25C30.0221 20.25 27 23.2721 27 27C27 30.7279 30.0221 33.75 33.75 33.75Z" stroke="white" stroke-width="2" stroke-linecap="round" stroke-linejoin="round"/>
<path d="M33.75 6.75H20.25C16.5221 6.75 13.5 9.77208 13.5 13.5C13.5 17.2279 16.5221 20.25 20.25 20.25H33.75C37.4779 20.25 40.5 17.2279 40.5 13.5C40.5 9.77208 37.4779 6.75 33.75 6.75Z" stroke="white" stroke-width="2" stroke-linecap="round" stroke-linejoin="round"/>
<path d="M20.25 20.25C18.4598 20.25 16.7429 20.9612 15.477 22.227C14.2112 23.4929 13.5 25.2098 13.5 27C13.5 28.7902 14.2112 30.5071 15.477 31.773C16.7429 33.0388 18.4598 33.75 20.25 33.75M20.25 33.75H27M20.25 33.75C18.915 33.75 17.6099 34.1459 16.4999 34.8876C15.3899 35.6293 14.5247 36.6835 14.0138 37.9169C13.5029 39.1503 13.3693 40.5075 13.6297 41.8169C13.8902 43.1262 14.533 44.329 15.477 45.273C16.421 46.217 17.6238 46.8599 18.9331 47.1203C20.2425 47.3808 21.5997 47.2471 22.8331 46.7362C24.0665 46.2253 25.1207 45.3601 25.8624 44.2501C26.6041 43.1401 27 41.835 27 40.5V6.75" stroke="white" stroke-width="2" stroke-linecap="round" stroke-linejoin="round"/>
</svg>
