<svg width="38" height="38" viewBox="0 0 38 38" fill="none" xmlns="http://www.w3.org/2000/svg">
<path d="M18.3207 18.2289H0C0.000620712 19.3153 0.215512 20.391 0.632373 21.3943C1.04923 22.3975 1.65988 23.3087 2.42935 24.0757C3.19882 24.8427 4.112 25.4503 5.11662 25.8639C6.12124 26.2775 7.19757 26.4889 8.284 26.486H11.6565V29.7429C11.6565 31.9323 12.526 34.032 14.0738 35.5804C15.6216 37.1288 17.721 37.9992 19.9104 38V19.8202C19.9104 19.3981 19.7428 18.9934 19.4443 18.695C19.1459 18.3966 18.7412 18.2289 18.3192 18.2289H18.3207ZM27.3822 9.11525H9.082C9.08242 11.3049 9.95254 13.4047 11.501 14.9529C13.0495 16.501 15.1494 17.3708 17.3391 17.3708H20.71V20.6293C20.7117 22.8185 21.5822 24.9176 23.1304 26.4655C24.6786 28.0134 26.7778 28.8835 28.9671 28.8848V10.7002C28.9671 10.2798 28.8001 9.87669 28.5029 9.57946C28.2056 9.28223 27.8025 9.11525 27.3822 9.11525ZM36.4372 0H18.1371C18.1371 2.18991 19.007 4.29014 20.5555 5.83864C22.104 7.38714 24.2042 8.25708 26.3942 8.25708H29.7651V11.514C29.7667 13.699 30.6344 15.7942 32.1779 17.3407C33.7214 18.8872 35.815 19.7589 38 19.7647V1.59125C38.0017 1.17362 37.8385 0.772196 37.5459 0.474229C37.2532 0.176262 36.8548 0.00583751 36.4372 0Z" fill="white"/>
</svg>
