<svg width="100" height="100" viewBox="0 0 100 100" fill="none" xmlns="http://www.w3.org/2000/svg">
<path fill-rule="evenodd" clip-rule="evenodd" d="M50 100C77.6144 100 100 77.6144 100 50C100 22.3857 77.6144 0 50 0C22.3857 0 0 22.3857 0 50C0 77.6144 22.3857 100 50 100ZM73.1694 45.5806L54.4194 26.8306C51.9787 24.3898 48.0214 24.3898 45.5806 26.8306C43.1398 29.2714 43.1398 33.2286 45.5806 35.6694L53.6613 43.75H31.25C27.7982 43.75 25 46.5482 25 50C25 53.4519 27.7982 56.25 31.25 56.25H53.6613L45.5806 64.3306C43.1398 66.7713 43.1398 70.7287 45.5806 73.1694C48.0214 75.61 51.9787 75.61 54.4194 73.1694L73.1694 54.4194C75.61 51.9787 75.61 48.0214 73.1694 45.5806Z" fill="white"/>
</svg>
