<svg width="42" height="48" viewBox="0 0 42 48" fill="none" xmlns="http://www.w3.org/2000/svg">
<path d="M20.79 0L0 12V36L20.79 48L41.58 36V12L20.79 0ZM32.79 33.18C32.79 34.59 31.498 35.76 29.732 35.76C28.47 35.76 27.03 35.25 26.13 34.14L14.13 19.858V33.178C14.13 34.62 12.99 35.758 11.582 35.758H11.43C9.988 35.758 8.85 34.558 8.85 33.178V14.82C8.85 13.41 10.11 12.24 11.85 12.24C13.142 12.24 14.61 12.75 15.51 13.86L27.45 28.142V14.82C27.45 13.378 28.65 12.24 30.03 12.24H30.18C31.62 12.24 32.76 13.44 32.76 14.82V33.18H32.79Z" fill="white"/>
</svg>
