<svg width="42" height="46" viewBox="0 0 42 46" fill="none" xmlns="http://www.w3.org/2000/svg">
<path fill-rule="evenodd" clip-rule="evenodd" d="M41.6 12.1333L20.8 0L0 12.1333V33.1714L3.22029 35.0498L9.80045 32.3874C11.6135 31.6539 12.8001 29.8936 12.8001 27.9378V11.4523H16.0001V27.9378C16.0001 31.1976 14.0224 34.1311 11.0007 35.3538L6.71443 37.0882L20.8 45.3045L41.6 33.1714V12.1333ZM19.2 17.8523C19.2 14.3177 22.0654 11.4523 25.6 11.4523H29.3334C32.5734 11.4523 35.2 14.0789 35.2 17.319V17.8523H32V17.319C32 15.8463 30.8061 14.6523 29.3334 14.6523H25.6C23.8327 14.6523 22.4 16.085 22.4 17.8523C22.4 19.6196 23.8327 21.0523 25.6 21.0523H28.8C32.3347 21.0523 35.2 23.9177 35.2 27.4523C35.2 30.9871 32.3347 33.8523 28.8 33.8523H25.6C22.0654 33.8523 19.2 30.9871 19.2 27.4523H22.4C22.4 29.2196 23.8327 30.6523 25.6 30.6523H28.8C30.5674 30.6523 32 29.2196 32 27.4523C32 25.685 30.5674 24.2523 28.8 24.2523H25.6C22.0654 24.2523 19.2 21.387 19.2 17.8523Z" fill="white"/>
</svg>
