<svg width="46" height="41" viewBox="0 0 46 41" fill="none" xmlns="http://www.w3.org/2000/svg">
<path d="M36.9994 13.0051C36.52 12.8414 36.0372 12.6889 35.5509 12.5476C35.6316 12.2195 35.7059 11.8895 35.7741 11.5576C36.8709 6.22323 36.1538 1.92573 33.7059 0.511045C31.3622 -0.846455 27.5184 0.568232 23.6409 3.95073C23.2597 4.28448 22.8862 4.62823 22.5206 4.98198C22.2769 4.74698 22.0269 4.51698 21.7706 4.29198C17.7066 0.675107 13.6331 -0.84833 11.1881 0.571045C8.84437 1.93136 8.14781 5.97104 9.135 11.027C9.23375 11.527 9.34469 12.0248 9.46781 12.5204C8.89125 12.6845 8.33438 12.8598 7.80188 13.0454C3.04313 14.7095 0 17.3185 0 20.0242C0 22.8198 3.26625 25.6229 8.22844 27.3226C8.63094 27.4595 9.03719 27.5867 9.44719 27.7042C9.31406 28.2348 9.19625 28.7714 9.09375 29.3139C8.15625 34.2826 8.8875 38.2267 11.2266 39.5785C13.6425 40.9745 17.6953 39.5401 21.6459 36.0807C21.9584 35.807 22.2709 35.5179 22.5834 35.2135C22.9784 35.5954 23.3847 35.966 23.8022 36.3254C27.6272 39.6235 31.4044 40.9557 33.7397 39.6001C36.1538 38.1995 36.9384 33.962 35.9194 28.8067C35.8413 28.4129 35.7513 28.011 35.6494 27.601C35.9344 27.5167 36.2134 27.4295 36.4866 27.3395C41.6428 25.6267 45.0019 22.8573 45.0019 20.027C45 17.3082 41.8594 14.6823 36.9994 13.0051ZM24.9056 5.40386C28.2272 2.50604 31.3322 1.3623 32.7478 2.1798C34.2544 3.05073 34.8403 6.56261 33.8934 11.1685C33.8309 11.4685 33.7634 11.7676 33.6909 12.0657C31.7087 11.6149 29.6986 11.2967 27.6741 11.1132C26.5149 9.44343 25.2442 7.85387 23.8706 6.35542C24.2069 6.02917 24.5513 5.71198 24.9038 5.40386H24.9056ZM13.2872 22.336C13.6941 23.1235 14.1194 23.9014 14.5631 24.6695C15.015 25.4532 15.4859 26.2254 15.9759 26.986C14.5829 26.8346 13.1985 26.6115 11.8284 26.3176C12.2259 25.0314 12.7153 23.6954 13.2872 22.336ZM13.2872 17.8051C12.7247 16.4748 12.2484 15.166 11.8575 13.9023C13.1419 13.6145 14.5106 13.3792 15.9375 13.201C15.4594 13.9473 14.9994 14.7045 14.5575 15.4726C14.1156 16.2407 13.6912 17.0182 13.2844 17.8051H13.2872ZM14.3091 20.071C14.9016 18.8354 15.5397 17.6235 16.2234 16.4354C16.9066 15.2479 17.6338 14.0876 18.405 12.9545C19.7438 12.8532 21.1162 12.7998 22.5028 12.7998C23.8894 12.7998 25.2703 12.8532 26.6081 12.9554C27.3713 14.086 28.0941 15.2423 28.7766 16.4242C29.4591 17.606 30.1056 18.8123 30.7163 20.0429C30.1138 21.2829 29.4688 22.4998 28.7812 23.6935C28.0994 24.881 27.3806 26.0448 26.625 27.1848C25.2891 27.2785 23.9062 27.3301 22.5 27.3301C21.0938 27.3301 19.7372 27.286 18.4256 27.2007C17.6488 26.0639 16.9156 24.8985 16.2262 23.7048C15.5369 22.511 14.8969 21.2998 14.3063 20.071H14.3091ZM30.4453 24.6564C30.8984 23.8701 31.3334 23.0735 31.7503 22.2667C32.3218 23.5624 32.8262 24.8866 33.2616 26.2342C31.8753 26.5463 30.4737 26.7857 29.0625 26.9514C29.5387 26.1957 29.9997 25.4307 30.4453 24.6564ZM31.7316 17.806C31.3166 17.0154 30.885 16.2342 30.4369 15.4623C29.9994 14.701 29.5434 13.9492 29.0691 13.2067C30.5044 13.3885 31.8816 13.6304 33.1725 13.9257C32.7574 15.2425 32.2765 16.5375 31.7316 17.806ZM22.5216 7.73261C23.4577 8.75551 24.3416 9.825 25.17 10.937C23.3981 10.8526 21.625 10.8526 19.8506 10.937C20.7253 9.78011 21.6206 8.70667 22.5216 7.73261ZM12.1556 2.23698C13.6613 1.36323 16.9903 2.61198 20.4994 5.73104C20.7234 5.93073 20.9494 6.1398 21.1744 6.35636C19.7938 7.85459 18.5141 9.44277 17.3438 11.1104C15.3237 11.2924 13.3176 11.6056 11.3381 12.0479C11.2238 11.5879 11.1206 11.1248 11.0287 10.6585C10.1803 6.32448 10.7419 3.0573 12.1556 2.23698ZM9.96094 25.8479C9.58594 25.741 9.21562 25.6251 8.85 25.5001C6.65625 24.7501 4.84406 23.7714 3.6 22.7054C2.48625 21.7501 1.92188 20.7967 1.92188 20.0242C1.92188 18.3826 4.365 16.2882 8.43937 14.8679C8.95125 14.6898 9.4675 14.527 9.98812 14.3795C10.5932 16.3241 11.3261 18.2267 12.1819 20.0748C11.3159 21.9484 10.574 23.877 9.96094 25.8479ZM20.3794 34.6295C18.6328 36.1595 16.8834 37.2442 15.3412 37.7907C13.9556 38.281 12.8522 38.2951 12.1856 37.9098C10.7662 37.0895 10.1756 33.9217 10.9809 29.6729C11.0766 29.1729 11.1859 28.6729 11.3091 28.1729C13.3083 28.6036 15.3346 28.8977 17.3738 29.0532C18.5555 30.7296 19.8458 32.3267 21.2362 33.8345C20.9569 34.1092 20.6709 34.3735 20.3794 34.6295ZM22.575 32.4526C21.6637 31.4673 20.7544 30.377 19.8675 29.2051C20.7294 29.2389 21.6069 29.2557 22.5 29.2557C23.4169 29.2557 24.3244 29.236 25.2188 29.1957C24.3934 30.3256 23.511 31.4126 22.575 32.4526ZM34.2487 35.1329C33.9806 36.5804 33.4416 37.546 32.775 37.9323C31.3566 38.7554 28.3237 37.6857 25.0537 34.8648C24.6787 34.5423 24.3038 34.1964 23.9222 33.8335C25.2856 32.3199 26.5456 30.7163 27.6937 29.0335C29.7442 28.8598 31.7803 28.545 33.7875 28.0914C33.8794 28.4626 33.9606 28.8264 34.0312 29.1826C34.4822 31.4607 34.5469 33.5214 34.2487 35.1329ZM35.88 25.5104C35.6344 25.592 35.3812 25.6707 35.1244 25.7476C34.495 23.7938 33.7335 21.885 32.8453 20.0345C33.7002 18.2086 34.4319 16.3275 35.0353 14.4039C35.4956 14.5379 35.9428 14.6785 36.3731 14.8276C40.5375 16.2639 43.0781 18.3901 43.0781 20.0242C43.0781 21.7679 40.3341 24.031 35.88 25.5104Z" fill="white"/>
<path d="M22.5 24.0517C23.2979 24.0543 24.0786 23.8201 24.7432 23.3787C25.4079 22.9374 25.9266 22.3087 26.2337 21.5723C26.5409 20.8359 26.6226 20.025 26.4685 19.2421C26.3145 18.4593 25.9316 17.7397 25.3683 17.1746C24.805 16.6095 24.0868 16.2243 23.3044 16.0677C22.5221 15.9111 21.7109 15.9901 20.9735 16.2949C20.2361 16.5996 19.6057 17.1163 19.1622 17.7795C18.7186 18.4427 18.4819 19.2226 18.4819 20.0205C18.4808 20.5491 18.5839 21.0727 18.7852 21.5615C18.9866 22.0502 19.2823 22.4945 19.6555 22.8688C20.0287 23.2432 20.472 23.5404 20.96 23.7434C21.4481 23.9463 21.9714 24.0511 22.5 24.0517Z" fill="white"/>
</svg>
