<svg width="48" height="44" viewBox="0 0 48 44" fill="none" xmlns="http://www.w3.org/2000/svg">
<path d="M47.3863 18.9572L37.9263 2.5884C37.1075 1.1672 35.0931 0 33.4459 0H14.5452C12.9072 0 10.8836 1.1672 10.0648 2.5884L0.61425 18.9572C-0.20475 20.3784 -0.20475 22.7032 0.61425 24.1246L10.0646 40.5026C10.8834 41.924 12.8978 43.0912 14.545 43.0912H33.4551C35.0931 43.0912 37.1071 41.924 37.9355 40.5028L47.3859 24.1248C48.2049 22.7034 48.2053 20.3784 47.3863 18.9572ZM21.9529 9.055C21.9529 7.982 22.8282 7.1066 23.9012 7.1066C24.9742 7.1066 25.8496 7.982 25.8496 9.055V20.6984C25.8496 21.7716 24.9742 22.6468 23.9012 22.6468C22.8282 22.6468 21.9529 21.7716 21.9529 20.6984V9.055ZM23.9012 33.9138C16.6158 33.9138 10.6859 27.9838 10.6859 20.6984C10.6953 16.5192 12.6718 12.5942 16.0229 10.0904C16.2056 9.95388 16.4135 9.85482 16.6346 9.79889C16.8557 9.74297 17.0857 9.73128 17.3114 9.76451C17.537 9.79774 17.7539 9.87523 17.9495 9.99252C18.1451 10.1098 18.3156 10.2646 18.4513 10.448C18.5878 10.6307 18.6869 10.8386 18.7428 11.0598C18.7988 11.2809 18.8105 11.5109 18.7772 11.7366C18.744 11.9623 18.6665 12.1792 18.5492 12.3748C18.4319 12.5705 18.2771 12.741 18.0936 12.8766C13.7732 16.0862 12.8697 22.195 16.0793 26.5154C19.2891 30.836 25.3979 31.7394 29.7183 28.5298C32.1939 26.6944 33.6529 23.7858 33.6529 20.6984C33.6488 19.1708 33.2875 17.6653 32.5977 16.3023C31.908 14.9393 30.9091 13.7565 29.6807 12.8484C28.9087 12.2836 28.7486 11.1916 29.3134 10.4198C29.8782 9.6478 30.9701 9.4878 31.7421 10.0528C35.1211 12.547 37.1073 16.5004 37.1167 20.6984C37.1167 27.9932 31.1866 33.9138 23.9012 33.9138Z" fill="white"/>
</svg>
