<svg width="48" height="35" viewBox="0 0 48 35" fill="none" xmlns="http://www.w3.org/2000/svg">
<path d="M25.32 0C24.566 1.274 24.232 4.228 24.316 6.324L24.306 6.332C24.378 8.224 24.636 9.964 25.05 11.562C18.858 13.096 12.118 17.152 8.346 21.07C6.582 18.69 5.882 16.734 5.674 15.254C5.412 13.382 5.858 11.666 6.966 10.29C8.7 8.136 11.162 7.984 13.696 8.41C13.646 8.81 13.698 9.192 13.858 9.43C14.528 10.418 18.128 10.766 20.278 9.808C18.692 7.584 15.478 6.5 14.59 6.934C14.2936 7.09285 14.058 7.3453 13.92 7.652C13.044 7.496 12.174 7.378 11.54 7.384C9.306 7.4 7.598 8.18 6.32 9.77C5.064 11.33 4.556 13.264 4.852 15.37C5.132 17.362 6.118 19.48 7.772 21.678C7.496 21.972 7.232 22.264 6.976 22.55C2.946 27.058 0 31.892 0 32.696V33.11H5.316L5.224 32.618C4.924 31.032 5.524 29.048 6.75 27.566C7.522 26.636 8.798 25.574 10.804 25.084C12.586 26.824 14.858 28.672 17.386 30.454H21.338V30.038C21.3369 29.8057 21.2763 29.5776 21.1617 29.3756C21.0472 29.1735 20.8827 29.0042 20.684 28.884C20.06 28.476 19.096 28.42 18.21 28.722C17.368 27.782 16.894 26.526 16.792 24.968C25.366 25.728 33.568 29.188 42.822 34.024H47.914L47.98 33.69C48.076 33.216 47.816 32.578 47.288 31.988C46.376 30.968 44.59 30.484 43.098 30.52C42.07 29.296 36.414 23.338 36.084 22.99C38.2363 21.4772 40.0558 19.5393 41.43 17.296H44.206V16.7H41.78C41.9354 16.4243 42.0841 16.1449 42.226 15.862H44.204V15.264H42.514C43.77 12.546 44.464 9.428 44.398 6.014L44.404 6.018C44.4 5.082 44.11 1.128 43.574 0.04C42.122 0.592 39.48 2.38 38.882 4.208C35.9186 3.78626 32.9079 3.82404 29.956 4.32C29.482 2.352 27.11 0.848 25.32 0ZM25.648 1.154C26.07 3.45 26.834 4.892 28.488 5.6C29.956 5.18 31.648 4.92 33.384 4.824L34.818 7.966L35.738 4.796C37.49 4.854 39.21 5.08 40.708 5.494C42.232 4.386 42.822 2.694 43.144 1.218C43.548 2.938 43.5 6.652 43.504 6.652C43.533 7.9846 43.4271 9.31671 43.188 10.628L41.54 11.328L42.992 11.548C42.8793 12.0291 42.7471 12.5055 42.596 12.976L41.19 13.386L42.31 13.788C42.122 14.294 41.91 14.788 41.682 15.264H39.362V15.862H41.378C41.227 16.1456 41.0683 16.4251 40.902 16.7H39.362V17.296H40.528C39.039 19.5611 37.0377 21.4439 34.686 22.792C32.018 21.464 30.004 19.524 28.528 17.296H29.42V16.7H28.148C27.9834 16.4248 27.826 16.1454 27.676 15.862H29.42V15.264H27.368C27.0188 14.5533 26.7116 13.8227 26.448 13.076L27.492 12.782L26.174 12.256C26.042 11.826 25.92 11.396 25.814 10.964L27.844 10.826L25.524 9.596C24.96 6.47 25.074 3.436 25.648 1.154ZM31.54 7.094C29.76 7.094 29.06 8.912 29.03 8.99L29.534 9.178C29.558 9.112 30.138 7.632 31.54 7.632C31.848 7.632 32.064 7.756 32.22 8.022C32.584 8.65 32.524 9.888 32.22 11.182H29.766V11.72H32.084C31.8498 12.5725 31.5169 13.3947 31.092 14.17L30.964 14.394L34.038 16.328L32.308 17.468L32.604 17.916L34.538 16.642L36.624 18.004L36.91 17.548L34.976 16.352L38.012 14.38V14.378C37.376 13.438 37.172 12.634 37.44 11.72H37.656L39.99 11.718L39.994 11.182H37.644C38.076 10.162 38.684 9.246 40.848 9.246V8.706C38.85 8.706 37.656 9.5 37.082 11.182H32.774C33.074 9.838 33.128 8.516 32.682 7.752C32.5714 7.54752 32.4063 7.37764 32.2051 7.26116C32.0039 7.14468 31.7744 7.08613 31.542 7.092L31.54 7.094ZM32.64 11.72H36.892C36.702 12.328 36.778 13.246 37.248 14.034H31.774C32.106 13.366 32.414 12.554 32.64 11.72ZM25.274 12.362C25.584 13.392 25.962 14.356 26.398 15.264H24.578V15.862H26.698C26.848 16.146 27.004 16.426 27.164 16.7H24.58V17.296H27.536C29.356 20.128 31.816 22.294 34.604 23.932C34.9132 23.754 35.2173 23.5672 35.516 23.372L36.24 24.152L35.02 26.028L37.1 25.08L38.312 26.384L36.274 27.936L39.08 27.21L42.89 31.31L43.21 31.282C45.224 31.11 46.37 32.202 46.67 32.542C46.894 32.79 47.028 33.016 47.1 33.194H43.028C33.688 28.32 25.486 24.884 16.774 24.134C16.794 22.92 17.008 21.548 17.422 20.018L16.622 19.802C16.196 21.374 15.972 22.796 15.946 24.07C15.038 24.01 14.126 23.978 13.204 23.978C12.422 23.978 11.71 24.05 11.06 24.178C10.2894 23.412 9.56161 22.6041 8.88 21.758C9.972 20.618 11.26 19.512 12.666 18.472L14.6 19.808L13.968 17.552C14.562 17.152 15.174 16.764 15.796 16.392L18.664 17.852L17.318 15.528C17.714 15.316 18.114 15.108 18.514 14.908L22.528 17.6L21.208 13.696C22.5312 13.157 23.8886 12.7113 25.274 12.362ZM32.258 14.572H36.698L34.53 16.002L32.258 14.572ZM8.306 22.362C8.852 23.036 9.46 23.718 10.126 24.404C8.55563 24.8618 7.15785 25.7783 6.112 27.036C4.854 28.556 4.188 30.56 4.34 32.28H0.99C1.664 30.824 4.344 26.614 8.306 22.362Z" fill="white"/>
</svg>
