<svg width="48" height="48" viewBox="0 0 48 48" fill="none" xmlns="http://www.w3.org/2000/svg">
<path d="M47.9063 11.6445L23.8874 0L0 11.705L0.039243 36.2539L23.8895 48L47.9455 36.1982L47.9063 11.6445ZM35.9821 28.7528L35.9665 19.0228L25.1179 24.4807L25.1697 35.3992L34.6342 30.7732L43.9156 35.493L25.2137 44.6681L25.1697 35.3992L23.8885 36.0255L22.5047 35.3414L22.5489 44.655L4.05641 35.5476L13.3252 30.8036L22.5047 35.3414L22.4527 24.3814L11.9634 19.1972L11.9788 28.7825L2.69966 33.5318L2.66939 14.6037L11.9634 19.1972L13.3102 17.1758L3.84973 12.5001L22.5584 3.33268V12.6271L13.3102 17.1758L23.8849 22.4023L34.4617 17.0812L25.2232 12.6189V3.32239L43.8554 12.3553L34.4617 17.0812L35.9665 19.0228L45.2459 14.3545L45.2763 33.4792L35.9821 28.7528Z" fill="white"/>
</svg>
