<svg width="194" height="46" viewBox="0 0 194 46" fill="none" xmlns="http://www.w3.org/2000/svg">
<path fill-rule="evenodd" clip-rule="evenodd" d="M87.9594 8.8742C94.8588 8.87451 101.494 11.5806 106.495 16.4331C106.871 16.8077 107.473 16.803 107.844 16.4225L111.443 12.7145C111.631 12.5216 111.736 12.2601 111.734 11.9882C111.733 11.7162 111.625 11.456 111.435 11.2653C98.3108 -1.57328 77.6058 -1.57328 64.4816 11.2653C64.2915 11.4559 64.1836 11.7159 64.1818 11.9879C64.1801 12.2599 64.2846 12.5214 64.4722 12.7145L68.0726 16.4225C68.4432 16.8035 69.0456 16.8083 69.4219 16.4331C74.4228 11.5802 81.0592 8.87418 87.9594 8.8742ZM88.0585 20.0682C91.8493 20.068 95.5048 21.5062 98.3148 24.1035C98.6948 24.4721 99.2935 24.4641 99.664 24.0855L103.259 20.3775C103.449 20.183 103.554 19.9192 103.551 19.645C103.548 19.3709 103.438 19.1093 103.245 18.9187C94.6878 10.794 81.4364 10.794 72.8796 18.9187C72.6863 19.1093 72.576 19.371 72.5735 19.6453C72.5709 19.9195 72.6764 20.1833 72.8661 20.3775L76.4602 24.0855C76.8307 24.4641 77.4294 24.4721 77.8095 24.1035C80.6176 21.5079 84.2702 20.0698 88.0585 20.0682ZM95.3694 27.3055C95.3749 27.5804 95.269 27.8455 95.0767 28.0381L88.8578 34.4444C88.6755 34.6326 88.4269 34.7386 88.1676 34.7386C87.9082 34.7386 87.6597 34.6326 87.4774 34.4444L81.2574 28.0381C81.0653 27.8454 80.9596 27.5802 80.9653 27.3053C80.971 27.0303 81.0875 26.77 81.2875 26.5857C85.2592 23.1568 91.076 23.1568 95.0477 26.5857C95.2475 26.7701 95.3639 27.0306 95.3694 27.3055Z" fill="white"/>
<path d="M28.1538 10.028C28.1538 8.48312 29.4062 7.23077 30.9511 7.23077H33.7483C35.2931 7.23077 36.5455 8.48312 36.5455 10.028V32.4056C36.5455 33.9504 35.2931 35.2028 33.7483 35.2028H30.9511C29.4062 35.2028 28.1538 33.9504 28.1538 32.4056V10.028Z" fill="white"/>
<path d="M42.1399 4.43357C42.1399 2.88871 43.3922 1.63636 44.9371 1.63636H47.7343C49.2791 1.63636 50.5315 2.88871 50.5315 4.43357V32.4056C50.5315 33.9504 49.2791 35.2028 47.7343 35.2028H44.9371C43.3922 35.2028 42.1399 33.9504 42.1399 32.4056V4.43357Z" fill="white"/>
<path d="M14.1678 19.8182C14.1678 18.2733 15.4202 17.021 16.965 17.021H19.7622C21.3071 17.021 22.5594 18.2733 22.5594 19.8182V32.4056C22.5594 33.9504 21.3071 35.2028 19.7622 35.2028H16.965C15.4202 35.2028 14.1678 33.9504 14.1678 32.4056V19.8182Z" fill="white"/>
<path d="M0.181824 26.8112C0.181824 25.2663 1.43417 24.014 2.97903 24.014H5.77623C7.32108 24.014 8.57343 25.2663 8.57343 26.8112V32.4056C8.57343 33.9504 7.32108 35.2028 5.77623 35.2028H2.97903C1.43417 35.2028 0.181824 33.9504 0.181824 32.4056V26.8112Z" fill="white"/>
<g filter="url(#filter0_d_19_2)">
<path fill-rule="evenodd" clip-rule="evenodd" d="M123 11.6366C123 5.2099 128.21 7.62939e-06 134.637 7.62939e-06H175.365C181.791 7.62939e-06 187.001 5.2099 187.001 11.6366V26.1824C187.001 32.6091 181.791 37.819 175.365 37.819H134.637C128.21 37.819 123 32.6091 123 26.1824V11.6366Z" fill="#808080"/>
</g>
<g filter="url(#filter1_d_19_2)">
<path d="M123 11.6366C123 5.2099 128.21 7.62939e-06 134.637 7.62939e-06H169.546V37.819H134.637C128.21 37.819 123 32.6091 123 26.1824V11.6366Z" fill="white"/>
</g>
<path d="M187.546 26.1824C187.546 32.6091 182.337 37.819 175.91 37.819L141 37.819L141 4.06922e-06L175.91 1.01731e-06C182.337 4.55463e-07 187.546 5.20989 187.546 11.6366L187.546 26.1824Z" fill="white"/>
<path d="M189.911 13.9863V25.7917C192.286 24.7918 193.83 22.4659 193.83 19.889C193.83 17.3121 192.286 14.9861 189.911 13.9863Z" fill="white"/>
<defs>
<filter id="filter0_d_19_2" x="119" y="7.62939e-06" width="72.0014" height="45.819" filterUnits="userSpaceOnUse" color-interpolation-filters="sRGB">
<feFlood flood-opacity="0" result="BackgroundImageFix"/>
<feColorMatrix in="SourceAlpha" type="matrix" values="0 0 0 0 0 0 0 0 0 0 0 0 0 0 0 0 0 0 127 0" result="hardAlpha"/>
<feOffset dy="4"/>
<feGaussianBlur stdDeviation="2"/>
<feComposite in2="hardAlpha" operator="out"/>
<feColorMatrix type="matrix" values="0 0 0 0 0 0 0 0 0 0 0 0 0 0 0 0 0 0 0.25 0"/>
<feBlend mode="normal" in2="BackgroundImageFix" result="effect1_dropShadow_19_2"/>
<feBlend mode="normal" in="SourceGraphic" in2="effect1_dropShadow_19_2" result="shape"/>
</filter>
<filter id="filter1_d_19_2" x="119" y="7.62939e-06" width="54.5464" height="45.819" filterUnits="userSpaceOnUse" color-interpolation-filters="sRGB">
<feFlood flood-opacity="0" result="BackgroundImageFix"/>
<feColorMatrix in="SourceAlpha" type="matrix" values="0 0 0 0 0 0 0 0 0 0 0 0 0 0 0 0 0 0 127 0" result="hardAlpha"/>
<feOffset dy="4"/>
<feGaussianBlur stdDeviation="2"/>
<feComposite in2="hardAlpha" operator="out"/>
<feColorMatrix type="matrix" values="0 0 0 0 0 0 0 0 0 0 0 0 0 0 0 0 0 0 0.25 0"/>
<feBlend mode="normal" in2="BackgroundImageFix" result="effect1_dropShadow_19_2"/>
<feBlend mode="normal" in="SourceGraphic" in2="effect1_dropShadow_19_2" result="shape"/>
</filter>
</defs>
</svg>
